<?xml version="1.0" encoding="iso-8859-1"?>
<!-- Generator: Adobe Illustrator 19.0.0, SVG Export Plug-In . SVG Version: 6.00 Build 0)  -->
<svg version="1.1" id="Layer_1" xmlns="http://www.w3.org/2000/svg" xmlns:xlink="http://www.w3.org/1999/xlink" x="0px" y="0px"
	 viewBox="0 0 512 512" style="enable-background:new 0 0 512 512;" xml:space="preserve">
<path style="fill:#E2E5E7;" d="M128,0c-17.6,0-32,14.4-32,32v448c0,17.6,14.4,32,32,32h320c17.6,0,32-14.4,32-32V128L352,0H128z"/>
<path style="fill:#B0B7BD;" d="M384,128h96L352,0v96C352,113.6,366.4,128,384,128z"/>
<polygon style="fill:#CAD1D8;" points="480,224 384,128 480,128 "/>
<path style="fill:#50BEE8;" d="M416,416c0,8.8-7.2,16-16,16H48c-8.8,0-16-7.2-16-16V256c0-8.8,7.2-16,16-16h352c8.8,0,16,7.2,16,16
	V416z"/>
<g>
	<path style="fill:#FFFFFF;" d="M96.928,327.84v47.328c0,5.648-4.608,8.832-9.216,8.832c-4.096,0-7.68-3.184-7.68-8.832v-72.016
		c0-6.656,5.632-8.848,7.68-8.848c3.696,0,5.872,2.192,8.064,4.624l28.128,37.984l29.168-39.408c4.24-5.232,14.592-3.2,14.592,5.648
		v72.016c0,5.648-3.568,8.832-7.664,8.832c-4.608,0-8.192-3.184-8.192-8.832V327.84l-21.248,26.864
		c-4.592,5.648-10.352,5.648-14.576,0L96.928,327.84z"/>
	<path style="fill:#FFFFFF;" d="M181.056,384c-4.096-2.304-6.656-6.912-4.096-12.288l36.704-71.76
		c3.456-6.784,12.672-7.024,15.872,0l36.064,71.76c5.248,9.984-10.24,17.904-14.832,7.936l-5.648-11.264h-47.2l-5.504,11.264
		C190.384,384,185.664,384.912,181.056,384z M236.064,351.52l-14.448-31.616l-15.728,31.616H236.064z"/>
	<path style="fill:#FFFFFF;" d="M298.288,311.472H275.92c-11.136,0-11.136-16.368,0-16.368h60.496c11.392,0,11.392,16.368,0,16.368
		h-21.232v64.592c0,11.12-16.896,11.392-16.896,0V311.472z"/>
</g>
<path style="fill:#CAD1D8;" d="M400,432H96v16h304c8.8,0,16-7.2,16-16v-16C416,424.8,408.8,432,400,432z"/>
<g>
</g>
<g>
</g>
<g>
</g>
<g>
</g>
<g>
</g>
<g>
</g>
<g>
</g>
<g>
</g>
<g>
</g>
<g>
</g>
<g>
</g>
<g>
</g>
<g>
</g>
<g>
</g>
<g>
</g>
</svg>
